<svg id="svg" version="1.1" xmlns="http://www.w3.org/2000/svg" xmlns:xlink="http://www.w3.org/1999/xlink" width="400" height="400" viewBox="0, 0, 400,400"><g id="svgg"><path id="path0" d="M61.217 123.446 C 58.547 124.266,55.766 126.970,54.721 129.765 L 54.000 131.692 54.000 197.201 L 54.000 262.710 56.417 262.640 C 58.463 262.581,59.104 262.707,60.598 263.465 C 64.393 265.389,73.323 267.340,80.715 267.860 L 83.931 268.086 83.185 270.293 C 82.066 273.599,81.331 276.861,80.718 281.234 L 80.167 285.167 48.667 285.167 C 13.264 285.167,15.973 284.973,13.530 287.677 C 10.050 291.530,10.974 303.693,14.960 306.494 L 16.391 307.500 52.112 307.598 C 90.865 307.705,90.667 307.710,90.667 306.487 L 90.667 305.681 54.917 305.591 L 19.167 305.500 17.581 304.568 C 12.002 301.289,12.725 289.691,18.639 287.591 C 19.572 287.259,26.430 287.167,50.000 287.167 L 80.167 287.167 80.053 289.203 C 79.919 291.607,79.797 291.535,84.540 291.874 L 87.580 292.092 87.931 291.129 C 88.141 290.550,88.291 290.399,88.307 290.750 C 88.321 291.071,88.573 291.333,88.866 291.333 C 89.321 291.333,89.294 291.512,88.681 292.550 L 87.963 293.767 89.232 295.068 C 91.636 297.534,97.492 300.000,100.941 300.000 C 102.172 300.000,102.089 298.982,100.767 297.875 C 97.704 295.310,94.832 292.212,95.400 292.085 C 96.432 291.853,101.271 278.008,102.653 271.333 C 103.986 264.897,103.602 261.273,101.422 259.736 C 95.860 255.813,87.713 254.200,75.141 254.535 C 66.310 254.770,66.298 254.769,66.113 254.062 C 65.938 253.395,65.688 253.348,61.880 253.260 L 57.833 253.167 57.418 249.333 C 57.189 247.225,56.755 243.888,56.453 241.919 C 55.704 237.032,56.502 228.087,58.083 223.662 C 58.403 222.767,58.537 212.582,58.666 179.333 L 58.833 136.167 59.649 134.509 C 60.690 132.394,62.727 130.356,64.842 129.316 L 66.500 128.500 208.733 128.415 L 350.967 128.330 352.782 129.010 C 355.336 129.965,357.422 131.921,358.738 134.594 L 359.833 136.819 359.833 222.326 L 359.833 307.833 358.900 309.833 C 357.687 312.432,355.744 314.385,353.206 315.558 L 351.167 316.500 287.500 316.500 L 223.833 316.500 219.115 300.167 C 216.520 291.183,214.230 283.196,214.027 282.417 L 213.657 281.000 211.829 281.000 C 210.823 281.000,210.000 281.081,210.000 281.179 C 210.000 281.278,212.250 289.177,215.000 298.733 C 217.750 308.289,220.000 316.233,220.000 316.387 C 220.000 316.541,212.136 316.667,202.524 316.667 L 185.048 316.667 184.400 318.417 C 184.043 319.379,183.657 320.474,183.541 320.849 C 183.338 321.511,183.228 321.521,179.979 321.164 C 177.144 320.853,176.586 320.870,176.360 321.274 C 176.134 321.677,175.611 321.695,173.039 321.391 C 169.226 320.940,169.333 321.019,169.333 318.667 L 169.333 316.707 168.093 316.603 L 166.852 316.500 164.810 309.333 L 162.769 302.167 161.551 302.063 C 160.012 301.932,159.975 301.500,162.167 309.392 C 163.175 313.024,164.000 316.146,164.000 316.331 C 164.000 316.543,161.963 316.667,158.478 316.667 C 153.376 316.667,152.968 316.622,153.124 316.083 C 153.218 315.762,154.060 312.680,154.997 309.233 C 155.934 305.787,156.784 302.749,156.886 302.483 C 157.029 302.110,156.763 302.000,155.718 302.000 C 154.476 302.000,154.339 302.089,154.059 303.083 C 148.938 321.226,146.851 328.485,146.481 329.437 C 146.272 329.975,146.418 330.029,147.843 329.937 L 149.439 329.833 150.339 326.333 C 152.964 316.120,153.212 315.610,153.300 320.250 L 153.333 322.000 159.448 322.000 L 165.563 322.000 166.653 326.000 L 167.743 330.000 169.205 330.000 C 170.843 330.000,170.809 330.054,170.280 328.287 C 169.786 326.639,169.897 326.558,171.767 327.196 C 173.115 327.655,173.341 327.869,173.527 328.861 C 173.794 330.281,176.667 330.692,176.667 329.311 C 176.667 328.747,176.803 328.665,177.417 328.861 C 181.003 330.007,182.000 329.982,182.000 328.744 C 182.000 328.465,182.226 328.357,182.583 328.465 C 185.583 329.370,188.393 330.003,188.666 329.834 C 189.520 329.306,188.960 328.025,187.297 326.701 C 185.659 325.397,183.000 322.611,183.000 322.199 C 183.000 322.089,191.689 322.000,202.310 322.000 L 221.619 322.000 222.165 323.917 C 222.465 324.971,223.007 326.846,223.370 328.083 L 224.028 330.333 225.847 330.333 C 228.018 330.333,227.986 330.500,226.670 326.138 C 226.123 324.320,225.673 322.646,225.670 322.417 C 225.667 322.085,238.605 322.000,289.250 321.998 C 328.303 321.997,353.588 321.873,354.788 321.676 C 358.660 321.042,361.679 318.806,363.283 315.385 L 364.167 313.500 364.167 222.333 L 364.167 131.167 363.384 129.265 C 362.479 127.066,360.091 124.631,357.882 123.654 C 355.673 122.676,64.388 122.472,61.217 123.446 M86.333 148.167 L 86.333 152.333 157.000 152.333 L 227.667 152.333 227.667 148.167 L 227.667 144.000 157.000 144.000 L 86.333 144.000 86.333 148.167 M98.152 145.874 C 99.706 146.470,99.999 148.719,98.692 150.026 C 96.942 151.776,94.333 150.811,94.333 148.414 C 94.333 146.345,96.179 145.117,98.152 145.874 M107.562 146.391 C 108.619 147.384,108.598 149.099,107.515 150.182 C 106.183 151.514,104.314 151.177,103.388 149.439 C 102.007 146.845,105.405 144.365,107.562 146.391 M116.515 146.485 C 117.608 147.578,117.585 148.991,116.455 150.121 C 114.006 152.570,110.353 148.962,112.725 146.438 C 113.718 145.381,115.433 145.402,116.515 146.485 M322.718 220.250 C 321.552 222.476,321.980 224.130,323.375 222.793 C 324.305 221.902,324.405 221.881,325.844 222.266 C 326.668 222.486,327.622 222.667,327.963 222.667 C 328.385 222.667,328.647 222.985,328.783 223.664 C 328.941 224.457,329.138 224.645,329.741 224.581 C 331.034 224.443,331.001 226.497,329.691 227.693 C 328.437 228.839,328.218 230.046,329.408 229.256 C 332.504 227.200,332.122 221.519,328.794 220.129 C 327.120 219.429,323.106 219.509,322.718 220.250 M161.333 229.004 C 156.580 229.376,155.240 230.466,155.056 234.113 C 154.893 237.351,156.572 242.565,157.365 241.281 C 157.702 240.737,157.338 238.957,156.775 238.394 C 155.701 237.320,156.493 234.437,157.589 235.430 C 158.477 236.233,158.589 236.171,159.053 234.622 C 159.927 231.703,166.344 231.304,167.321 234.108 C 167.810 235.511,168.500 234.785,168.500 232.867 C 168.500 229.484,166.813 228.575,161.333 229.004 M162.566 237.798 C 162.429 238.145,162.396 238.507,162.492 238.603 C 162.796 238.907,163.064 238.409,162.936 237.776 C 162.820 237.196,162.802 237.197,162.566 237.798 M165.667 238.333 C 165.667 238.700,165.817 239.000,166.000 239.000 C 166.183 239.000,166.333 238.700,166.333 238.333 C 166.333 237.967,166.183 237.667,166.000 237.667 C 165.817 237.667,165.667 237.967,165.667 238.333 M165.093 248.555 C 165.289 251.823,157.285 252.411,156.476 249.188 C 156.217 248.159,156.168 248.155,153.880 249.011 C 150.241 250.373,147.981 253.153,147.350 257.043 C 146.817 260.327,146.961 260.419,147.862 257.369 C 149.147 253.022,150.135 252.033,153.724 251.498 C 156.993 251.010,158.173 257.128,156.433 265.548 C 155.046 272.258,155.486 272.544,169.202 273.835 L 171.571 274.058 172.134 272.650 C 172.684 271.277,172.680 271.224,171.973 270.471 C 171.112 269.555,171.179 268.161,172.337 262.833 C 174.053 254.939,171.520 248.898,165.926 247.545 C 165.055 247.334,165.022 247.374,165.093 248.555 M146.690 272.200 C 146.677 272.768,146.764 274.380,146.882 275.783 L 147.098 278.333 153.299 278.295 L 159.500 278.258 156.500 277.793 C 150.266 276.826,148.090 275.640,147.190 272.715 C 146.758 271.312,146.711 271.264,146.690 272.200 M126.037 283.250 C 123.107 293.277,118.495 309.265,117.984 311.167 C 117.442 313.185,113.471 326.805,112.663 329.417 L 112.380 330.333 114.350 330.333 C 116.226 330.333,116.331 330.289,116.535 329.417 C 116.653 328.912,117.695 325.200,118.850 321.167 C 122.153 309.639,130.016 282.229,130.206 281.583 C 130.355 281.077,130.134 281.000,128.537 281.000 L 126.695 281.000 126.037 283.250 M147.464 281.527 C 147.576 281.817,147.667 282.192,147.667 282.361 C 147.667 282.540,152.274 282.667,158.833 282.667 L 170.000 282.667 170.000 281.833 L 170.000 281.000 158.631 281.000 C 148.401 281.000,147.282 281.053,147.464 281.527 M143.991 303.417 C 143.603 304.746,142.995 306.808,142.638 308.000 C 142.281 309.192,140.799 314.374,139.344 319.516 C 137.888 324.658,136.600 329.120,136.480 329.432 C 136.294 329.916,136.487 330.000,137.784 330.000 C 139.259 330.000,139.317 329.961,139.656 328.750 C 140.826 324.560,145.191 308.555,146.033 305.364 C 147.101 301.318,147.059 301.016,145.431 301.005 C 144.803 301.001,144.591 301.355,143.991 303.417 M167.417 301.475 C 166.074 301.883,166.035 301.370,167.911 308.139 L 169.488 313.833 169.883 310.500 C 170.228 307.590,169.332 301.347,168.543 301.156 C 168.519 301.151,168.012 301.294,167.417 301.475 " stroke="none" fill="#333771" fill-rule="evenodd"></path><path id="path1" d="M380.968 105.523 C 378.030 112.017,376.846 114.324,375.121 116.916 C 373.282 119.680,368.091 125.257,364.926 127.868 L 363.352 129.167 363.828 130.500 C 364.216 131.586,364.307 134.972,364.319 148.775 L 364.333 165.718 367.009 163.275 C 380.786 150.703,387.564 127.347,383.327 107.054 C 382.447 102.844,382.240 102.710,380.968 105.523 M46.667 172.145 C 46.667 181.291,46.669 181.319,47.417 181.806 C 48.103 182.252,53.544 184.667,53.863 184.667 C 53.938 184.667,54.000 180.629,54.000 175.695 L 54.000 166.724 50.333 164.848 L 46.667 162.973 46.667 172.145 M184.205 164.137 C 179.687 166.038,176.069 168.985,165.329 179.508 C 154.006 190.603,154.309 190.538,144.620 183.937 C 128.680 173.077,122.182 173.284,115.365 184.871 C 111.015 192.265,109.680 193.484,105.973 193.451 C 102.549 193.419,98.919 192.406,94.750 190.318 L 91.000 188.440 91.000 196.887 L 91.000 205.333 152.000 205.333 L 213.000 205.333 213.000 191.980 C 213.000 182.783,213.108 178.694,213.348 178.843 C 213.540 178.961,212.256 177.664,210.495 175.961 C 199.355 165.184,190.829 161.349,184.205 164.137 M237.667 203.000 L 237.667 205.333 263.000 205.333 C 285.948 205.333,290.517 205.187,287.342 204.552 C 285.495 204.182,285.828 201.333,287.718 201.333 C 288.057 201.333,288.333 201.183,288.333 201.000 C 288.333 200.781,279.667 200.667,263.000 200.667 L 237.667 200.667 237.667 203.000 M278.333 202.000 C 279.158 202.825,279.162 203.059,278.368 204.040 C 277.519 205.088,275.888 204.621,275.732 203.286 C 275.535 201.602,277.141 200.808,278.333 202.000 M283.896 202.330 C 284.228 202.998,284.222 203.291,283.866 203.830 C 282.917 205.267,281.000 204.696,281.000 202.976 C 281.000 201.267,283.131 200.792,283.896 202.330 M22.012 204.895 C 21.910 208.347,25.091 216.320,28.781 221.860 C 30.285 224.118,34.409 228.825,34.306 228.167 C 34.014 226.290,34.398 215.666,34.750 215.878 C 35.033 216.048,35.020 215.947,34.709 215.564 C 34.458 215.254,34.115 215.000,33.948 215.000 C 32.664 215.000,26.333 209.695,23.406 206.167 C 22.645 205.250,22.018 204.678,22.012 204.895 M329.333 234.142 C 329.333 236.319,323.991 236.909,323.460 234.791 C 323.082 233.288,319.447 234.372,314.167 237.562 C 301.373 245.292,298.040 245.116,293.289 236.458 L 291.968 234.051 289.984 236.184 C 287.694 238.646,287.731 238.492,288.873 240.746 C 293.222 249.327,311.471 252.383,315.328 245.176 C 316.080 243.771,316.178 244.071,317.453 251.750 C 318.131 255.829,318.872 259.992,319.101 261.000 L 319.515 262.833 326.091 262.924 C 331.910 263.004,332.667 262.953,332.667 262.485 C 332.667 261.600,334.346 244.857,334.471 244.500 C 334.809 243.533,336.916 250.993,337.410 254.903 C 337.836 258.269,337.832 258.290,334.862 267.750 L 334.052 270.333 336.678 270.333 L 339.305 270.333 339.974 268.083 C 343.807 255.183,342.892 244.291,337.324 236.537 C 335.559 234.080,329.333 232.214,329.333 234.142 M86.130 234.588 C 85.926 234.723,85.494 235.351,85.170 235.983 L 84.581 237.133 83.960 236.366 C 83.515 235.817,83.298 235.727,83.197 236.050 C 82.929 236.904,82.677 238.246,82.347 240.570 C 82.127 242.123,81.355 244.447,80.033 247.534 L 78.051 252.167 72.025 252.258 C 68.385 252.312,66.000 252.477,66.000 252.674 C 66.000 253.331,58.073 253.080,57.877 252.417 C 57.743 251.963,57.720 251.981,57.773 252.500 C 57.837 253.121,58.121 253.173,61.884 253.260 C 65.632 253.346,65.940 253.403,66.105 254.033 C 66.280 254.702,66.424 254.709,76.391 254.529 C 81.951 254.429,89.912 254.343,94.083 254.340 L 101.667 254.333 101.667 253.353 C 101.667 252.463,101.780 252.364,102.911 252.270 L 104.154 252.167 106.312 247.167 C 108.621 241.817,109.617 235.474,108.281 234.627 C 107.735 234.281,86.650 234.244,86.130 234.588 M56.116 237.333 C 56.116 238.892,56.174 239.529,56.244 238.750 C 56.314 237.971,56.314 236.696,56.244 235.917 C 56.174 235.137,56.116 235.775,56.116 237.333 M106.579 237.337 C 106.627 237.610,106.521 238.058,106.345 238.333 C 105.895 239.035,104.878 238.040,105.196 237.209 C 105.457 236.530,106.454 236.622,106.579 237.337 M178.629 261.738 C 177.857 263.180,172.000 276.133,172.000 276.397 C 172.000 276.545,176.088 276.633,181.083 276.593 C 186.696 276.547,188.224 276.480,185.083 276.417 L 180.000 276.316 180.000 268.658 C 180.000 260.720,179.777 259.593,178.629 261.738 M21.667 263.198 C 18.050 264.765,17.333 266.541,17.333 273.934 C 17.333 280.707,17.641 281.795,20.127 283.807 L 21.395 284.833 30.614 285.059 C 35.685 285.183,48.908 285.258,60.000 285.226 L 80.167 285.167 80.271 284.089 L 80.375 283.011 52.216 282.922 L 24.057 282.833 22.612 281.831 C 17.684 278.414,18.108 268.307,23.293 265.598 L 25.076 264.667 44.121 264.666 L 63.167 264.666 61.053 263.666 L 58.940 262.667 40.887 262.680 C 25.510 262.691,22.660 262.768,21.667 263.198 M152.750 278.583 C 156.004 278.637,161.329 278.637,164.583 278.583 C 167.838 278.528,165.175 278.484,158.667 278.484 C 152.158 278.484,149.496 278.528,152.750 278.583 M127.589 280.908 C 128.188 280.982,129.088 280.981,129.589 280.905 C 130.090 280.829,129.600 280.768,128.500 280.770 C 127.400 280.772,126.990 280.834,127.589 280.908 M152.917 280.916 C 156.079 280.971,161.254 280.971,164.417 280.916 C 167.579 280.861,164.992 280.817,158.667 280.817 C 152.342 280.817,149.754 280.861,152.917 280.916 M210.583 280.908 C 211.179 280.982,212.154 280.982,212.750 280.908 C 213.346 280.834,212.858 280.773,211.667 280.773 C 210.475 280.773,209.987 280.834,210.583 280.908 M77.173 308.199 C 73.438 309.567,72.333 311.974,72.333 318.750 C 72.333 325.519,73.114 327.500,76.481 329.277 L 78.167 330.167 95.133 330.267 C 104.464 330.322,112.207 330.247,112.340 330.100 C 112.472 329.954,112.678 329.421,112.797 328.917 L 113.013 328.000 96.962 328.000 C 85.899 328.000,80.516 327.882,79.641 327.620 C 72.414 325.454,72.414 312.212,79.641 310.047 C 80.527 309.782,86.558 309.667,99.589 309.667 L 118.268 309.667 118.617 308.667 L 118.965 307.667 98.733 307.690 C 81.885 307.710,78.278 307.795,77.173 308.199 M122.543 308.417 C 122.433 308.829,122.340 309.279,122.338 309.417 C 122.335 309.554,126.762 309.667,132.175 309.667 L 142.017 309.667 142.342 308.812 C 142.520 308.341,142.667 307.891,142.667 307.812 C 142.667 307.732,138.184 307.667,132.706 307.667 L 122.744 307.667 122.543 308.417 M145.333 308.139 C 145.333 308.399,145.242 308.849,145.131 309.139 C 144.954 309.601,145.392 309.667,148.631 309.667 C 151.605 309.667,152.333 309.574,152.333 309.194 C 152.333 308.934,152.424 308.484,152.536 308.194 C 152.713 307.733,152.275 307.667,149.036 307.667 C 146.062 307.667,145.333 307.760,145.333 308.139 M116.899 328.250 C 116.822 328.387,116.660 328.912,116.540 329.417 L 116.321 330.333 135.244 330.328 C 155.211 330.323,155.833 330.278,155.833 328.823 C 155.833 327.669,149.940 327.838,149.668 329.000 C 149.499 329.723,149.265 329.847,147.903 329.935 C 146.174 330.047,146.198 330.067,146.658 328.855 L 146.983 328.000 143.474 328.000 L 139.965 328.000 139.617 329.000 C 139.309 329.882,136.333 330.657,136.333 329.855 C 136.333 329.775,136.480 329.325,136.658 328.855 L 136.983 328.000 127.011 328.000 C 121.527 328.000,116.976 328.112,116.899 328.250 " stroke="none" fill="#e54b74" fill-rule="evenodd"></path><path id="path2" d="M53.000 66.198 C 40.740 69.454,31.502 81.216,18.074 110.667 C 11.524 125.032,12.259 133.254,20.439 137.123 C 28.295 140.840,35.473 138.031,43.043 128.278 C 45.294 125.378,50.034 120.277,57.799 112.402 C 74.392 95.571,77.317 91.017,77.324 82.000 C 77.332 70.512,65.557 62.862,53.000 66.198 M299.150 84.820 C 290.704 86.355,283.928 89.805,274.722 97.258 L 271.277 100.047 269.555 98.664 C 248.390 81.673,219.424 83.149,183.437 103.053 C 180.102 104.897,177.277 106.406,177.160 106.406 C 177.042 106.406,174.739 104.757,172.041 102.741 C 149.270 85.727,134.515 81.520,116.167 86.810 C 109.565 88.713,99.659 93.596,99.672 94.941 C 99.699 97.594,104.361 102.772,108.757 105.030 C 115.211 108.345,117.519 111.785,118.804 120.000 L 119.195 122.500 204.514 122.581 L 289.833 122.661 291.442 119.654 C 296.783 109.668,307.004 99.930,319.750 92.683 C 322.807 90.945,322.752 91.154,320.574 89.561 C 314.666 85.242,306.625 83.462,299.150 84.820 M246.933 101.733 C 247.357 102.157,247.470 103.922,247.131 104.806 C 246.821 105.613,192.512 105.613,192.202 104.806 C 191.863 103.922,191.976 102.157,192.400 101.733 C 192.979 101.154,246.354 101.154,246.933 101.733 M253.646 101.809 C 253.863 102.070,253.994 102.933,253.937 103.725 L 253.833 105.167 251.697 105.267 C 250.213 105.337,249.477 105.235,249.285 104.934 C 248.871 104.280,248.946 102.188,249.400 101.733 C 249.971 101.163,253.157 101.219,253.646 101.809 M260.646 101.809 C 260.863 102.070,260.994 102.933,260.937 103.725 L 260.833 105.167 258.500 105.167 L 256.167 105.167 256.063 103.725 C 255.923 101.776,256.374 101.333,258.500 101.333 C 259.610 101.333,260.396 101.507,260.646 101.809 M84.167 107.703 C 81.662 110.459,77.747 115.496,75.386 119.000 L 73.028 122.500 81.064 122.589 C 85.483 122.639,89.144 122.634,89.198 122.579 C 89.253 122.525,88.789 121.209,88.167 119.657 C 87.026 116.806,86.239 113.224,85.761 108.701 L 85.500 106.236 84.167 107.703 M256.476 108.524 C 257.105 109.152,257.160 110.655,256.583 111.439 C 256.196 111.966,254.244 112.000,229.000 111.920 L 201.833 111.833 201.730 110.392 C 201.544 107.810,199.360 108.000,229.184 108.000 C 253.074 108.000,256.009 108.056,256.476 108.524 M264.143 108.524 C 264.761 109.142,264.837 111.029,264.267 111.600 C 263.533 112.334,260.081 112.108,259.648 111.298 C 259.210 110.480,259.503 108.457,260.094 108.217 C 261.060 107.826,263.640 108.021,264.143 108.524 M337.985 109.083 C 337.665 110.843,335.780 117.302,334.924 119.574 L 333.766 122.649 344.217 122.741 C 351.300 122.804,354.667 122.721,354.667 122.486 C 354.666 120.404,348.147 112.877,344.817 111.114 C 342.302 109.782,338.086 108.529,337.985 109.083 M241.980 114.809 C 242.197 115.070,242.327 115.933,242.270 116.725 L 242.167 118.167 214.929 118.252 L 187.692 118.337 187.316 117.634 C 186.877 116.813,187.169 114.791,187.761 114.551 C 188.895 114.091,241.592 114.341,241.980 114.809 M250.143 114.857 C 251.802 116.516,250.490 118.408,247.778 118.267 L 245.833 118.167 245.730 116.532 C 245.661 115.450,245.774 114.804,246.063 114.621 C 246.831 114.134,249.579 114.293,250.143 114.857 M257.143 114.857 C 257.761 115.476,257.837 117.363,257.267 117.933 C 256.533 118.667,253.081 118.442,252.648 117.632 C 252.210 116.813,252.503 114.790,253.094 114.551 C 254.060 114.159,256.640 114.354,257.143 114.857 M264.143 114.857 C 264.761 115.476,264.837 117.363,264.267 117.933 C 263.533 118.667,260.081 118.442,259.648 117.632 C 259.210 116.813,259.503 114.790,260.094 114.551 C 261.060 114.159,263.640 114.354,264.143 114.857 M67.128 128.649 C 63.980 129.403,60.950 131.921,59.554 134.941 L 58.833 136.500 58.745 179.080 L 58.657 221.659 60.130 220.186 C 61.743 218.573,63.360 217.637,65.667 216.981 C 68.027 216.310,69.384 213.419,67.949 212.120 C 66.693 210.984,65.883 207.191,66.499 205.336 C 66.840 204.310,66.958 203.282,66.820 202.544 C 65.922 197.759,72.296 194.373,75.152 198.118 C 75.612 198.721,77.067 199.804,78.384 200.524 C 79.701 201.244,80.979 202.032,81.223 202.274 C 82.449 203.491,80.972 206.397,78.919 206.807 C 76.606 207.270,75.750 207.324,77.083 206.924 C 78.186 206.593,78.333 206.424,78.333 205.493 C 78.333 202.394,72.006 201.972,70.798 204.991 C 70.231 206.409,69.862 206.657,69.546 205.833 C 69.102 204.676,68.333 205.310,68.333 206.833 C 68.333 207.658,68.464 208.333,68.624 208.333 C 68.783 208.333,69.014 209.089,69.137 210.013 C 69.529 212.966,70.271 213.714,73.900 214.812 C 74.303 214.934,74.720 215.311,74.828 215.649 C 74.950 216.034,75.485 216.349,76.261 216.494 C 82.813 217.713,85.104 222.767,83.654 232.800 C 83.243 235.645,84.461 238.225,85.166 236.002 C 85.702 234.315,85.556 234.333,98.124 234.333 C 106.813 234.333,109.971 234.437,110.267 234.733 C 111.133 235.599,110.601 237.464,107.333 245.016 C 105.500 249.254,104.000 253.084,104.000 253.527 L 104.000 254.333 95.250 254.372 C 86.830 254.410,86.582 254.429,88.667 254.887 C 100.714 257.535,104.012 260.068,103.543 266.310 C 103.100 272.205,97.696 290.257,95.809 292.144 C 95.356 292.596,98.035 295.475,100.750 297.456 C 103.793 299.675,102.170 300.737,97.561 299.542 C 93.505 298.490,93.667 298.498,93.667 299.344 C 93.667 300.531,92.730 300.464,86.717 298.848 C 77.716 296.428,77.903 296.574,79.687 293.338 C 80.254 292.308,80.543 291.459,80.347 291.394 C 80.156 291.330,80.000 290.388,80.000 289.300 L 80.000 287.323 49.362 287.412 L 18.724 287.500 17.279 288.502 C 13.487 291.131,12.654 299.073,15.774 302.858 C 17.947 305.494,15.158 305.318,54.876 305.326 C 93.270 305.334,91.827 305.265,90.727 307.027 C 90.336 307.654,90.612 307.667,104.589 307.667 L 118.849 307.667 122.600 294.583 C 124.663 287.387,126.346 281.390,126.342 281.255 C 126.337 281.121,122.096 280.971,116.917 280.922 L 107.500 280.833 107.500 279.667 L 107.500 278.500 123.845 278.414 L 140.190 278.327 140.612 274.747 C 141.520 267.059,142.315 264.879,144.419 264.308 C 145.197 264.097,146.021 263.871,146.250 263.806 C 146.520 263.729,146.671 263.008,146.678 261.760 C 146.724 254.129,149.296 250.097,155.250 248.318 C 156.544 247.931,156.667 247.800,156.667 246.797 C 156.667 246.193,156.831 244.932,157.032 243.995 C 157.343 242.545,157.317 242.201,156.857 241.693 C 155.065 239.712,154.165 233.158,155.422 231.240 C 156.589 229.457,158.392 228.872,162.775 228.852 L 166.717 228.833 167.692 229.922 C 168.867 231.234,169.082 233.870,168.095 234.857 C 167.556 235.397,167.508 235.369,167.246 234.357 C 166.532 231.599,159.828 231.769,159.222 234.561 C 158.880 236.137,158.407 236.613,157.874 235.917 C 157.108 234.918,156.667 235.241,156.667 236.798 C 156.667 237.792,156.827 238.324,157.167 238.454 C 157.511 238.586,157.667 239.125,157.667 240.188 C 157.667 242.877,159.378 244.575,162.686 245.170 C 163.565 245.328,163.961 245.615,164.212 246.275 C 164.486 246.997,164.894 247.246,166.349 247.584 C 172.098 248.920,174.208 255.102,172.153 264.589 C 171.256 268.729,171.297 269.849,172.373 270.683 C 173.030 271.192,173.024 271.229,171.846 273.683 C 170.847 275.762,170.740 276.185,171.186 276.279 C 171.879 276.426,171.483 277.149,175.166 269.000 C 176.948 265.058,178.559 261.644,178.747 261.412 C 179.013 261.085,181.417 261.010,189.453 261.079 L 199.818 261.167 200.123 262.036 C 200.579 263.334,194.834 276.041,193.640 276.375 C 193.196 276.499,185.285 276.615,176.060 276.633 L 159.287 276.667 159.393 277.417 L 159.500 278.167 193.667 278.333 L 227.833 278.500 227.833 279.667 L 227.833 280.833 220.824 281.000 L 213.815 281.167 218.858 298.667 L 223.901 316.167 268.784 316.251 C 311.722 316.332,313.667 316.310,313.667 315.739 C 313.667 315.411,314.414 314.585,315.327 313.903 C 318.158 311.790,318.129 312.008,316.464 305.333 C 312.829 290.752,312.705 288.830,314.786 279.333 C 315.923 274.150,318.427 265.070,319.033 263.938 C 319.259 263.515,319.111 262.049,318.542 259.083 C 318.094 256.746,317.625 254.196,317.501 253.417 L 317.275 252.000 277.304 252.000 L 237.333 252.000 237.333 249.500 L 237.333 247.000 266.057 247.000 L 294.781 247.000 293.222 245.967 C 290.436 244.122,287.203 239.426,287.888 238.219 C 288.237 237.604,292.050 233.598,292.157 233.734 C 292.201 233.788,292.815 234.958,293.524 236.333 C 295.165 239.520,298.361 242.850,300.090 243.174 C 302.079 243.547,307.570 241.280,313.812 237.509 C 318.271 234.815,324.375 232.585,323.524 233.961 C 323.424 234.123,323.664 234.664,324.058 235.164 C 325.219 236.640,329.000 235.706,329.000 233.943 C 329.000 232.944,333.865 233.259,335.470 234.362 C 342.096 238.914,344.371 253.452,340.550 266.825 L 339.500 270.500 336.750 270.597 C 333.433 270.714,333.532 271.286,335.667 264.366 C 337.849 257.291,337.843 255.253,335.619 247.750 C 334.833 245.096,334.337 244.650,334.326 246.583 C 334.322 247.271,333.967 251.283,333.537 255.500 C 332.824 262.502,332.795 263.441,333.205 266.333 C 333.451 268.075,333.646 270.400,333.638 271.500 C 333.620 274.107,333.625 274.339,333.965 284.500 C 334.125 289.267,334.421 294.292,334.622 295.667 C 335.000 298.241,336.071 314.707,335.873 314.905 C 335.812 314.966,333.550 315.111,330.846 315.228 C 325.069 315.477,324.580 315.084,328.169 313.074 C 329.268 312.458,330.273 311.850,330.404 311.723 C 330.622 311.511,329.829 303.667,328.984 297.667 C 328.516 294.347,325.064 275.107,324.708 273.833 L 324.428 272.833 324.068 274.167 C 323.869 274.900,323.470 276.432,323.181 277.572 C 322.891 278.712,321.967 281.937,321.126 284.739 C 319.316 290.773,319.352 288.992,320.801 300.745 C 321.693 307.985,322.146 310.647,322.657 311.648 C 323.842 313.970,323.902 313.927,316.667 315.957 C 315.873 316.180,321.305 316.266,333.667 316.226 L 351.833 316.167 354.000 314.974 C 355.423 314.190,356.598 313.217,357.424 312.140 C 359.862 308.958,359.681 316.535,359.586 221.656 L 359.500 136.167 358.613 134.487 C 357.534 132.443,355.160 130.191,353.059 129.220 L 351.500 128.500 209.833 128.450 C 131.917 128.422,67.699 128.512,67.128 128.649 M51.929 136.435 C 47.386 139.551,33.333 153.965,33.333 155.507 C 33.333 155.795,38.588 158.684,46.083 162.518 L 54.000 166.568 54.000 150.951 C 54.000 142.361,53.887 135.339,53.750 135.345 C 53.612 135.352,52.793 135.842,51.929 136.435 M228.000 148.333 L 228.000 152.667 157.000 152.667 L 86.000 152.667 86.000 148.333 L 86.000 144.000 157.000 144.000 L 228.000 144.000 228.000 148.333 M333.333 146.500 L 333.333 149.000 297.000 149.000 L 260.667 149.000 260.667 146.500 L 260.667 144.000 297.000 144.000 L 333.333 144.000 333.333 146.500 M318.583 145.360 C 317.914 145.750,317.811 147.011,318.400 147.600 C 319.335 148.535,321.000 147.831,321.000 146.500 C 321.000 145.182,319.834 144.632,318.583 145.360 M323.733 145.400 C 322.822 146.311,323.408 148.000,324.636 148.000 C 325.732 148.000,326.333 147.449,326.333 146.445 C 326.333 145.262,324.577 144.556,323.733 145.400 M328.877 145.705 C 328.190 146.686,328.655 147.803,329.806 147.941 C 331.449 148.137,332.271 146.652,331.143 145.524 C 330.413 144.794,329.462 144.870,328.877 145.705 M95.672 146.095 C 94.084 146.899,93.917 149.576,95.406 150.372 C 96.542 150.980,98.086 150.800,98.747 149.983 C 100.548 147.759,98.215 144.809,95.672 146.095 M104.245 146.331 C 101.991 148.105,103.902 151.581,106.611 150.636 C 108.218 150.076,108.821 147.994,107.750 146.705 C 106.860 145.633,105.339 145.471,104.245 146.331 M113.277 146.176 C 111.494 147.145,111.846 149.911,113.848 150.672 C 116.380 151.635,118.270 148.048,116.122 146.358 C 115.097 145.551,114.499 145.513,113.277 146.176 M11.903 153.285 C 7.279 159.348,6.593 168.876,10.561 171.902 C 12.897 173.685,16.026 173.232,17.844 170.849 C 21.143 166.523,21.747 154.773,18.771 152.823 C 17.449 151.957,14.722 152.291,13.115 153.517 L 11.848 154.483 12.536 153.492 C 14.221 151.063,13.722 150.900,11.903 153.285 M28.507 163.083 C 21.598 177.083,26.116 190.215,41.423 200.626 L 43.013 201.708 42.144 203.104 C 39.598 207.193,35.971 215.773,36.547 216.344 C 36.704 216.501,39.383 217.554,42.500 218.686 C 48.569 220.889,50.042 221.549,52.227 223.046 C 52.993 223.571,53.707 224.000,53.813 224.000 C 53.919 224.000,53.967 215.208,53.919 204.463 L 53.833 184.925 50.614 183.509 C 41.421 179.463,34.314 171.275,31.441 161.417 C 30.652 158.711,30.669 158.701,28.507 163.083 M366.250 164.029 L 364.333 165.943 364.333 171.420 L 364.333 176.897 366.110 176.001 C 367.817 175.140,368.982 174.789,374.833 173.373 C 380.362 172.035,380.398 172.468,374.333 167.327 C 372.225 165.540,370.059 163.610,369.521 163.039 C 368.333 161.778,368.578 161.704,366.250 164.029 M194.336 164.264 C 199.620 166.348,204.137 169.714,213.614 178.635 C 217.139 181.952,220.393 184.908,220.845 185.205 L 221.667 185.743 221.667 195.538 L 221.667 205.333 156.333 205.333 L 91.000 205.333 91.000 196.833 C 91.000 192.158,91.089 188.333,91.199 188.333 C 91.308 188.333,91.831 188.642,92.361 189.020 C 95.524 191.272,101.927 193.333,105.758 193.333 C 109.736 193.333,110.867 192.364,114.918 185.480 C 122.113 173.254,128.457 172.925,144.620 183.937 C 154.328 190.551,153.984 190.627,165.498 179.346 C 177.000 168.077,179.961 165.716,184.982 163.802 C 186.811 163.104,192.054 163.363,194.336 164.264 M385.000 183.935 C 385.000 186.228,369.809 197.524,365.083 198.744 L 364.333 198.938 364.333 236.163 L 364.333 273.389 365.662 272.337 C 372.471 266.944,375.842 258.481,375.822 246.833 C 375.810 240.131,375.735 239.484,373.608 227.592 L 372.252 220.018 373.917 218.092 C 383.086 207.487,387.258 195.934,385.788 185.213 C 385.615 183.951,385.000 182.954,385.000 183.935 M12.139 184.990 C 7.965 186.678,6.451 196.319,9.886 199.335 C 13.740 202.719,18.005 198.115,18.099 190.470 C 18.147 186.530,15.148 183.773,12.139 184.990 M292.000 203.000 L 292.000 205.333 264.667 205.333 L 237.333 205.333 237.333 203.000 L 237.333 200.667 264.667 200.667 L 292.000 200.667 292.000 203.000 M276.408 201.852 C 274.906 202.904,276.168 205.153,277.835 204.393 C 278.889 203.913,279.007 202.206,278.022 201.678 C 277.211 201.245,277.287 201.237,276.408 201.852 M281.647 201.949 C 281.077 202.411,280.951 202.760,281.117 203.422 C 281.500 204.946,283.489 204.990,283.868 203.482 C 284.247 201.970,282.830 200.991,281.647 201.949 M287.083 201.688 C 285.982 202.115,286.035 203.878,287.165 204.393 C 287.855 204.708,288.114 204.667,288.680 204.155 C 289.969 202.989,288.717 201.054,287.083 201.688 M74.167 206.667 C 74.498 207.033,74.658 207.333,74.521 207.333 C 74.384 207.333,73.890 207.033,73.424 206.667 C 72.879 206.238,72.753 206.000,73.070 206.000 C 73.341 206.000,73.835 206.300,74.167 206.667 M75.578 211.258 C 75.108 211.846,75.027 211.664,75.249 210.509 C 75.414 209.652,75.472 209.607,75.678 210.176 C 75.810 210.538,75.765 211.024,75.578 211.258 M75.583 212.750 C 75.507 212.979,75.169 213.167,74.833 213.167 C 74.497 213.167,74.160 212.979,74.083 212.750 C 73.995 212.486,74.270 212.333,74.833 212.333 C 75.396 212.333,75.671 212.486,75.583 212.750 M329.423 220.286 C 331.466 221.548,332.355 225.049,331.196 227.267 C 330.545 228.513,328.787 230.131,328.532 229.719 C 328.224 229.220,329.013 227.708,329.694 227.491 C 330.934 227.098,330.886 224.667,329.639 224.667 C 329.257 224.667,328.859 224.338,328.684 223.879 C 328.358 223.022,327.716 222.667,326.492 222.667 C 326.060 222.667,325.613 222.517,325.500 222.333 C 325.138 221.747,324.412 221.973,323.400 222.985 C 322.253 224.132,322.000 224.012,322.000 222.323 C 322.000 219.330,326.070 218.214,329.423 220.286 M326.333 224.794 C 326.333 224.865,325.958 224.994,325.500 225.082 C 325.042 225.169,324.667 225.112,324.667 224.954 C 324.667 224.796,325.042 224.667,325.500 224.667 C 325.958 224.667,326.333 224.724,326.333 224.794 M323.696 227.278 C 323.430 227.775,323.445 227.989,323.753 228.113 C 323.997 228.212,323.927 228.291,323.583 228.307 C 323.262 228.321,323.000 228.173,323.000 227.978 C 323.000 227.451,323.694 226.250,323.887 226.443 C 323.979 226.535,323.893 226.910,323.696 227.278 M325.607 229.417 C 325.519 230.031,325.289 230.167,324.333 230.167 C 322.278 230.167,323.114 228.863,325.273 228.700 C 325.545 228.679,325.672 228.953,325.607 229.417 M35.205 230.092 C 36.035 234.918,37.593 239.152,39.626 242.107 L 40.626 243.561 39.429 245.530 C 36.882 249.722,34.528 255.678,33.547 260.417 L 33.081 262.667 43.541 262.667 L 54.000 262.667 54.000 250.990 C 54.000 240.159,53.958 239.299,53.417 239.134 C 48.036 237.487,42.373 234.599,37.973 231.259 L 35.020 229.018 35.205 230.092 M324.417 229.260 C 324.004 229.326,323.667 229.519,323.667 229.690 C 323.667 230.119,324.910 230.081,325.180 229.644 C 325.466 229.183,325.329 229.114,324.417 229.260 M162.292 236.208 C 162.865 236.323,163.333 236.551,163.333 236.715 C 163.333 237.031,161.837 236.764,161.000 236.298 C 160.395 235.962,160.887 235.927,162.292 236.208 M166.972 236.453 C 166.580 236.792,164.964 236.994,165.158 236.680 C 165.276 236.489,165.764 236.333,166.242 236.333 C 166.720 236.333,167.049 236.387,166.972 236.453 M105.546 236.898 C 105.134 237.310,105.339 238.333,105.833 238.333 C 106.108 238.333,106.333 238.042,106.333 237.686 C 106.333 236.991,105.894 236.550,105.546 236.898 M163.221 238.478 C 163.111 238.765,162.866 239.000,162.677 239.000 C 162.294 239.000,162.206 237.905,162.561 237.550 C 162.927 237.184,163.441 237.906,163.221 238.478 M166.555 237.856 C 166.788 238.464,166.212 239.170,165.727 238.871 C 165.336 238.629,165.607 237.333,166.049 237.333 C 166.217 237.333,166.444 237.568,166.555 237.856 M164.888 240.811 C 164.669 241.382,163.667 241.537,163.667 241.000 C 163.667 240.817,163.817 240.667,164.000 240.667 C 164.183 240.667,164.333 240.412,164.333 240.100 C 164.333 239.678,164.430 239.630,164.711 239.911 C 164.919 240.119,164.998 240.524,164.888 240.811 M164.167 242.845 C 163.617 243.097,162.792 243.299,162.333 243.293 C 161.685 243.284,161.796 243.185,162.833 242.843 C 164.590 242.264,165.433 242.265,164.167 242.845 M314.887 246.000 L 313.943 247.000 315.138 247.000 C 316.244 247.000,316.333 246.925,316.333 246.000 C 316.333 245.450,316.220 245.000,316.082 245.000 C 315.944 245.000,315.406 245.450,314.887 246.000 M24.819 265.034 C 17.607 266.702,17.413 280.658,24.574 282.647 C 25.405 282.877,35.085 282.997,53.045 282.998 L 80.258 283.000 80.476 281.417 C 81.041 277.331,82.478 271.283,83.547 268.497 C 83.704 268.089,83.359 268.000,81.610 268.000 C 77.479 268.000,70.724 266.935,65.833 265.513 C 62.947 264.673,28.133 264.267,24.819 265.034 M185.536 268.194 C 184.873 269.922,186.040 271.579,187.144 270.476 C 187.765 269.854,187.827 268.627,187.267 268.067 C 186.702 267.502,185.775 267.570,185.536 268.194 M364.333 294.321 C 364.333 312.390,364.312 313.033,363.641 314.826 C 362.787 317.109,360.433 319.684,358.167 320.817 C 356.520 321.639,356.513 321.650,357.583 321.658 L 358.667 321.667 358.667 325.167 C 358.667 329.243,358.603 329.195,361.674 327.417 C 373.014 320.852,377.421 304.586,371.954 289.479 C 370.429 285.262,365.252 275.667,364.502 275.667 C 364.409 275.667,364.333 284.061,364.333 294.321 M130.548 281.255 C 130.373 281.538,123.000 307.140,123.000 307.464 C 123.000 307.575,127.419 307.667,132.820 307.667 L 142.641 307.667 142.978 306.417 C 143.163 305.729,143.542 304.417,143.820 303.500 C 144.569 301.032,144.514 300.853,142.874 300.415 C 140.392 299.751,139.371 294.830,139.798 285.583 L 140.010 281.000 135.358 281.000 C 132.799 281.000,130.635 281.115,130.548 281.255 M170.333 281.924 C 170.333 282.828,170.404 282.864,173.019 283.275 C 183.554 284.933,189.926 288.170,190.523 292.167 C 191.029 295.550,189.461 303.694,186.560 312.750 L 185.412 316.333 202.661 316.333 L 219.911 316.333 214.852 298.750 L 209.793 281.167 190.063 281.081 L 170.333 280.995 170.333 281.924 M87.828 291.684 C 87.715 292.041,87.463 292.333,87.270 292.333 C 87.059 292.333,87.093 292.544,87.355 292.859 C 87.768 293.357,88.964 292.452,88.993 291.619 C 89.012 291.045,88.013 291.100,87.828 291.684 M170.826 298.022 C 170.706 298.401,170.165 299.215,169.624 299.831 L 168.640 300.951 169.438 303.724 C 170.253 306.552,170.352 306.571,170.837 304.000 C 171.047 302.880,172.198 298.741,172.562 297.791 C 172.683 297.477,172.472 297.333,171.891 297.333 C 171.329 297.333,170.972 297.564,170.826 298.022 M146.700 303.583 C 146.336 304.821,145.938 306.246,145.816 306.750 L 145.594 307.667 149.118 307.667 L 152.641 307.667 152.978 306.417 C 153.163 305.729,153.538 304.424,153.812 303.516 C 154.085 302.607,154.277 301.841,154.238 301.812 C 154.199 301.783,152.636 301.663,150.764 301.546 L 147.362 301.332 146.700 303.583 M163.750 301.902 C 162.798 302.085,162.688 301.405,164.949 309.333 L 166.897 316.167 168.115 316.270 C 169.981 316.429,169.839 315.334,166.450 303.417 C 165.928 301.581,165.798 301.507,163.750 301.902 M155.231 308.938 C 154.187 312.755,153.333 315.980,153.333 316.105 C 153.333 316.231,155.711 316.333,158.617 316.333 L 163.900 316.333 162.278 310.417 C 161.386 307.162,160.503 303.938,160.315 303.250 C 159.989 302.054,159.913 302.000,158.551 302.000 L 157.128 302.000 155.231 308.938 M21.372 310.167 C 14.125 312.427,14.478 325.780,21.834 327.632 C 24.638 328.338,74.552 328.132,73.925 327.417 C 72.354 325.624,72.167 324.729,72.167 319.000 C 72.167 313.284,72.316 312.528,73.865 310.417 L 74.415 309.667 48.624 309.689 C 27.794 309.707,22.552 309.799,21.372 310.167 M79.624 310.188 C 72.470 312.391,72.575 325.363,79.765 327.498 C 81.165 327.914,84.151 328.000,97.213 328.000 L 112.972 328.000 113.629 325.750 C 113.991 324.512,115.130 320.575,116.160 317.000 C 117.190 313.425,118.096 310.313,118.173 310.083 C 118.392 309.430,81.763 309.530,79.624 310.188 M122.172 310.083 C 122.095 310.313,120.954 314.250,119.637 318.833 C 118.320 323.417,117.172 327.354,117.086 327.583 C 116.962 327.911,119.057 328.000,126.881 327.998 L 136.833 327.997 139.306 319.248 C 140.666 314.437,141.844 310.313,141.925 310.083 C 142.040 309.756,139.951 309.667,132.192 309.667 C 124.585 309.667,122.280 309.763,122.172 310.083 M144.542 311.417 C 144.264 312.379,143.197 316.242,142.172 320.000 C 141.147 323.758,140.229 327.096,140.132 327.417 C 139.971 327.946,140.274 328.000,143.408 328.000 L 146.862 328.000 149.316 319.250 C 150.666 314.438,151.838 310.313,151.921 310.083 C 152.035 309.767,151.227 309.667,148.559 309.667 L 145.047 309.667 144.542 311.417 M151.534 322.333 C 150.819 324.992,150.166 327.354,150.082 327.583 C 149.913 328.043,152.852 328.206,153.093 327.750 C 153.166 327.612,153.138 325.250,153.030 322.500 L 152.833 317.500 151.534 322.333 M193.333 331.512 C 204.784 333.987,214.093 334.634,221.752 333.490 C 225.038 332.999,235.687 330.733,235.972 330.464 C 236.049 330.392,225.324 330.347,212.139 330.365 L 188.167 330.396 193.333 331.512 M343.227 330.753 C 345.826 330.957,348.287 330.955,350.061 330.749 C 352.526 330.462,352.076 330.427,346.000 330.431 L 339.167 330.435 343.227 330.753 " stroke="none" fill="#efeafa" fill-rule="evenodd"></path><path id="path3" d="M260.667 146.500 L 260.667 149.000 297.000 149.000 L 333.333 149.000 333.333 146.500 L 333.333 144.000 297.000 144.000 L 260.667 144.000 260.667 146.500 M320.600 145.400 C 320.820 145.620,321.000 146.115,321.000 146.500 C 321.000 146.885,320.820 147.380,320.600 147.600 C 319.646 148.554,318.000 147.826,318.000 146.450 C 318.000 145.250,319.745 144.545,320.600 145.400 M325.689 145.345 C 326.409 145.731,326.546 146.988,325.933 147.600 C 325.354 148.179,323.775 148.096,323.536 147.473 C 322.833 145.641,324.030 144.457,325.689 145.345 M331.143 145.524 C 332.271 146.652,331.449 148.137,329.806 147.941 C 328.655 147.803,328.190 146.686,328.877 145.705 C 329.462 144.870,330.413 144.794,331.143 145.524 M388.727 165.025 C 385.092 169.072,379.880 172.195,374.782 173.378 C 370.321 174.414,366.624 175.576,365.417 176.321 L 364.333 176.990 364.333 187.980 L 364.333 198.970 365.672 198.498 C 374.116 195.519,385.600 185.413,389.626 177.419 C 391.536 173.626,392.274 168.034,391.319 164.595 C 390.826 162.821,390.685 162.845,388.727 165.025 M210.500 176.000 C 211.773 177.283,212.890 178.333,212.982 178.333 C 213.074 178.333,212.107 177.283,210.833 176.000 C 209.560 174.717,208.443 173.667,208.351 173.667 C 208.260 173.667,209.227 174.717,210.500 176.000 M213.000 192.010 L 213.000 205.333 217.333 205.333 L 221.667 205.333 221.667 195.538 L 221.667 185.743 220.772 185.157 C 220.280 184.835,218.593 183.342,217.022 181.840 C 212.580 177.592,213.000 176.531,213.000 192.010 M288.236 201.107 C 288.143 201.350,288.352 201.726,288.700 201.943 C 289.459 202.418,289.525 203.426,288.833 204.000 C 287.787 204.868,288.252 205.333,290.167 205.333 L 292.000 205.333 292.000 203.000 L 292.000 200.667 290.202 200.667 C 289.020 200.667,288.347 200.817,288.236 201.107 M68.532 212.948 C 68.436 213.103,68.258 213.851,68.137 214.609 C 67.877 216.238,67.729 216.368,65.310 217.101 C 63.085 217.774,60.598 219.360,59.520 220.791 C 56.342 225.013,55.502 240.842,57.861 252.083 L 58.053 253.000 62.026 253.000 C 64.392 253.000,66.000 252.868,66.000 252.674 C 66.000 252.477,68.385 252.312,72.025 252.258 L 78.051 252.167 80.033 247.534 C 81.355 244.447,82.127 242.123,82.347 240.570 C 82.701 238.074,82.949 236.800,83.235 236.000 C 83.947 234.008,84.154 224.699,83.533 222.564 C 82.598 219.347,80.017 217.193,76.261 216.494 C 75.509 216.354,74.949 216.032,74.835 215.673 C 74.726 215.327,73.827 214.783,72.667 214.360 C 71.577 213.963,70.467 213.419,70.200 213.152 C 69.663 212.616,68.802 212.511,68.532 212.948 M34.333 221.705 C 34.333 225.896,34.225 227.639,33.975 227.485 C 33.779 227.363,33.815 227.579,34.056 227.965 C 34.297 228.351,34.621 228.667,34.777 228.667 C 34.933 228.667,35.834 229.323,36.780 230.125 C 40.643 233.401,47.148 237.074,51.833 238.625 L 53.833 239.287 53.923 231.927 C 54.001 225.524,53.943 224.489,53.472 223.970 C 52.483 222.877,47.667 220.623,42.386 218.781 C 39.515 217.779,36.818 216.733,36.392 216.456 C 34.329 215.114,34.333 215.103,34.333 221.705 M108.281 234.627 C 108.623 234.844,108.701 235.778,108.614 238.595 C 108.551 240.621,108.521 242.254,108.546 242.223 C 108.571 242.192,109.059 241.063,109.629 239.715 C 111.213 235.972,110.975 234.328,108.850 234.338 C 108.162 234.342,107.978 234.435,108.281 234.627 M157.042 244.076 C 156.237 249.443,156.236 249.128,157.067 249.880 C 159.254 251.861,163.916 251.693,165.039 249.593 C 165.685 248.388,164.098 245.430,162.667 245.169 C 160.640 244.800,158.839 243.739,158.128 242.495 L 157.456 241.319 157.042 244.076 M102.917 252.243 C 101.093 252.434,100.984 254.333,102.797 254.333 C 103.840 254.333,103.938 254.244,104.063 253.167 C 104.138 252.525,104.192 252.025,104.183 252.056 C 104.174 252.087,103.604 252.171,102.917 252.243 M180.000 268.668 L 180.000 276.346 187.220 276.257 L 194.439 276.167 197.434 269.536 C 199.963 263.937,200.381 262.770,200.123 262.036 L 199.818 261.167 189.909 261.078 L 180.000 260.990 180.000 268.668 M144.855 264.153 C 142.250 264.853,141.236 267.594,140.449 276.062 L 140.238 278.327 123.869 278.414 L 107.500 278.500 107.500 279.667 L 107.500 280.833 118.833 280.874 C 125.067 280.896,132.381 280.934,135.088 280.957 L 140.010 281.000 139.798 285.583 C 139.355 295.179,140.363 299.703,143.120 300.494 C 149.859 302.428,166.710 302.486,168.877 300.583 C 171.516 298.267,171.442 297.016,168.667 297.004 C 163.396 296.981,153.842 294.421,149.649 291.909 C 146.391 289.955,145.738 288.080,147.005 284.318 C 147.382 283.200,147.589 281.972,147.476 281.522 L 147.275 280.721 187.554 280.777 L 227.833 280.833 227.833 279.667 L 227.833 278.500 187.446 278.566 L 147.060 278.631 146.813 275.399 C 146.678 273.621,146.552 270.255,146.533 267.918 C 146.515 265.582,146.500 263.679,146.500 263.691 C 146.500 263.702,145.760 263.910,144.855 264.153 M187.267 268.067 C 187.827 268.627,187.765 269.854,187.144 270.476 C 186.040 271.579,184.873 269.922,185.536 268.194 C 185.775 267.570,186.702 267.502,187.267 268.067 M72.131 319.000 C 72.131 321.475,72.183 322.487,72.247 321.250 C 72.311 320.012,72.311 317.987,72.247 316.750 C 72.183 315.512,72.131 316.525,72.131 319.000 " stroke="none" fill="#f19652" fill-rule="evenodd"></path><path id="path4" d="M336.877 77.459 C 335.215 80.949,330.761 85.468,325.833 88.664 C 324.000 89.853,322.425 90.926,322.333 91.047 C 322.242 91.168,320.618 92.182,318.726 93.299 C 308.580 99.288,301.317 105.563,295.494 113.370 C 293.458 116.100,290.000 121.828,290.000 122.470 C 290.000 122.581,299.862 122.633,311.917 122.586 L 333.833 122.500 334.956 119.500 C 335.574 117.850,336.478 114.925,336.967 113.000 C 337.456 111.075,337.959 109.332,338.087 109.128 C 339.820 106.338,340.044 79.700,338.372 75.293 C 338.232 74.923,337.759 75.608,336.877 77.459 M84.503 81.960 C 87.153 85.648,87.546 89.457,86.270 99.073 C 85.160 107.438,85.824 114.055,88.393 120.250 L 89.396 122.667 104.318 122.667 L 119.241 122.667 118.784 119.814 C 117.495 111.765,115.157 108.318,108.757 105.030 C 104.452 102.819,99.704 97.606,99.672 95.057 C 99.669 94.813,98.834 92.985,97.816 90.995 C 94.479 84.471,90.222 80.865,85.334 80.422 L 83.263 80.234 84.503 81.960 M192.400 101.733 C 191.976 102.157,191.863 103.922,192.202 104.806 C 192.512 105.613,246.821 105.613,247.131 104.806 C 247.470 103.922,247.357 102.157,246.933 101.733 C 246.354 101.154,192.979 101.154,192.400 101.733 M249.400 101.733 C 248.946 102.188,248.871 104.280,249.285 104.934 C 249.477 105.235,250.213 105.337,251.697 105.267 L 253.833 105.167 253.937 103.725 C 253.994 102.933,253.863 102.070,253.646 101.809 C 253.157 101.219,249.971 101.163,249.400 101.733 M256.354 101.809 C 256.137 102.070,256.006 102.933,256.063 103.725 L 256.167 105.167 258.500 105.167 L 260.833 105.167 260.937 103.725 C 261.077 101.776,260.626 101.333,258.500 101.333 C 257.390 101.333,256.604 101.507,256.354 101.809 M202.020 108.475 C 201.803 108.737,201.673 109.599,201.730 110.392 L 201.833 111.833 229.000 111.920 C 259.029 112.015,257.000 112.157,257.000 109.960 C 257.000 107.889,258.569 108.000,229.184 108.000 C 206.412 108.000,202.356 108.071,202.020 108.475 M260.094 108.217 C 259.503 108.457,259.210 110.480,259.648 111.298 C 260.081 112.108,263.533 112.334,264.267 111.600 C 266.189 109.677,262.957 107.057,260.094 108.217 M187.761 114.551 C 187.169 114.791,186.877 116.813,187.316 117.634 L 187.692 118.337 214.929 118.252 L 242.167 118.167 242.270 116.725 C 242.456 114.142,244.638 114.330,214.876 114.360 C 200.186 114.374,187.984 114.460,187.761 114.551 M246.063 114.621 C 245.774 114.804,245.661 115.450,245.730 116.532 L 245.833 118.167 247.778 118.267 C 250.065 118.386,250.667 118.014,250.667 116.483 C 250.667 114.634,247.843 113.492,246.063 114.621 M253.094 114.551 C 252.503 114.790,252.210 116.813,252.648 117.632 C 253.081 118.442,256.533 118.667,257.267 117.933 C 259.189 116.011,255.957 113.390,253.094 114.551 M260.094 114.551 C 259.503 114.790,259.210 116.813,259.648 117.632 C 260.081 118.442,263.533 118.667,264.267 117.933 C 266.189 116.011,262.957 113.390,260.094 114.551 M29.669 153.417 C 29.711 160.282,35.077 171.454,41.113 177.239 C 43.291 179.326,48.652 183.274,47.083 181.635 C 46.771 181.309,46.667 178.906,46.667 172.003 L 46.667 162.806 44.750 161.873 C 40.315 159.714,34.675 156.459,32.477 154.790 C 29.995 152.904,29.665 152.743,29.669 153.417 M366.484 163.750 L 365.167 165.167 366.583 163.849 C 367.363 163.124,368.000 162.487,368.000 162.432 C 368.000 162.180,367.710 162.433,366.484 163.750 M66.744 201.667 C 66.744 202.308,66.813 202.571,66.896 202.250 C 66.980 201.929,66.980 201.404,66.896 201.083 C 66.813 200.762,66.744 201.025,66.744 201.667 M237.445 203.000 C 237.445 204.375,237.504 204.938,237.576 204.250 C 237.648 203.563,237.648 202.438,237.576 201.750 C 237.504 201.063,237.445 201.625,237.445 203.000 M78.411 205.667 C 78.411 206.308,78.479 206.571,78.563 206.250 C 78.647 205.929,78.647 205.404,78.563 205.083 C 78.479 204.762,78.411 205.025,78.411 205.667 M68.084 206.833 C 68.088 207.567,68.156 207.827,68.236 207.413 C 68.315 206.998,68.312 206.398,68.229 206.079 C 68.146 205.761,68.080 206.100,68.084 206.833 M329.000 233.959 C 329.000 234.809,328.259 235.361,326.398 235.896 C 324.911 236.323,324.897 236.338,326.119 236.188 C 327.640 236.001,329.016 235.176,329.241 234.316 C 329.366 233.839,329.791 233.672,331.118 233.578 L 332.833 233.457 330.917 233.395 C 329.242 233.341,329.000 233.412,329.000 233.959 M292.724 235.500 C 293.270 236.508,293.779 237.333,293.855 237.333 C 293.931 237.333,293.588 236.508,293.094 235.500 C 292.599 234.492,292.090 233.667,291.963 233.667 C 291.835 233.667,292.178 234.492,292.724 235.500 M334.028 233.768 C 334.104 233.823,334.617 234.132,335.167 234.454 L 336.167 235.040 335.380 234.353 C 334.947 233.976,334.434 233.667,334.241 233.667 C 334.047 233.667,333.951 233.712,334.028 233.768 M289.551 236.309 C 288.514 237.395,287.671 238.482,287.677 238.725 C 287.682 238.968,287.851 238.867,288.052 238.500 C 288.253 238.133,289.181 237.046,290.114 236.083 C 291.047 235.121,291.726 234.333,291.623 234.333 C 291.519 234.333,290.587 235.222,289.551 236.309 M323.333 234.587 C 323.333 234.969,324.240 236.000,324.575 236.000 C 324.682 236.000,324.486 235.662,324.139 235.250 C 323.791 234.838,323.468 234.438,323.420 234.361 C 323.372 234.285,323.333 234.387,323.333 234.587 M337.078 236.193 C 337.396 236.568,338.106 237.690,338.655 238.687 C 339.205 239.684,339.656 240.350,339.658 240.167 C 339.662 239.608,337.770 236.498,337.115 235.989 C 336.525 235.531,336.524 235.539,337.078 236.193 M315.083 236.705 C 313.947 237.433,313.579 237.921,314.583 237.369 C 315.348 236.949,316.546 236.023,316.333 236.016 C 316.242 236.013,315.679 236.323,315.083 236.705 M312.583 238.191 C 311.337 238.867,311.413 239.148,312.667 238.500 C 313.217 238.216,313.667 237.912,313.667 237.825 C 313.667 237.610,313.631 237.622,312.583 238.191 M308.333 240.500 C 306.775 241.307,305.616 241.974,305.757 241.983 C 306.112 242.006,311.333 239.365,311.333 239.163 C 311.333 238.937,311.475 238.874,308.333 240.500 M288.000 239.461 C 288.000 239.819,288.992 241.667,289.184 241.667 C 289.275 241.667,289.103 241.179,288.800 240.583 C 288.181 239.367,288.000 239.113,288.000 239.461 M296.500 240.954 C 297.233 241.742,298.133 242.545,298.500 242.738 C 298.867 242.932,299.092 243.022,299.000 242.939 C 295.753 239.992,295.183 239.540,296.500 240.954 M289.952 242.908 C 290.675 243.948,292.979 245.977,294.000 246.473 C 294.275 246.607,294.050 246.378,293.500 245.966 C 292.950 245.553,291.758 244.454,290.852 243.524 C 289.752 242.395,289.453 242.190,289.952 242.908 M315.406 245.008 C 315.015 245.633,315.034 245.651,315.659 245.261 C 316.030 245.029,316.333 244.726,316.333 244.586 C 316.333 244.105,315.825 244.336,315.406 245.008 M316.333 246.500 C 316.333 246.851,315.979 247.000,315.147 247.000 C 314.428 247.000,314.043 246.867,314.170 246.661 C 314.285 246.475,313.823 246.700,313.143 247.161 C 312.463 247.622,311.753 248.000,311.565 248.000 C 311.376 248.000,311.308 248.086,311.413 248.191 C 311.519 248.296,312.061 248.146,312.619 247.858 C 313.177 247.569,314.316 247.333,315.150 247.333 C 316.444 247.333,316.667 247.236,316.667 246.667 C 316.667 246.300,316.592 246.000,316.500 246.000 C 316.408 246.000,316.333 246.225,316.333 246.500 M266.083 246.919 L 237.333 247.004 237.333 249.502 L 237.333 252.000 277.333 252.000 L 317.333 252.000 317.283 250.917 C 317.237 249.908,317.224 249.897,317.095 250.750 L 316.956 251.667 277.311 251.667 L 237.667 251.667 237.667 249.495 L 237.667 247.323 266.972 247.411 C 283.090 247.460,296.253 247.483,296.222 247.462 C 295.459 246.938,290.391 246.846,266.083 246.919 M334.084 247.833 C 334.088 248.567,334.156 248.827,334.236 248.413 C 334.315 247.998,334.312 247.398,334.229 247.079 C 334.146 246.761,334.080 247.100,334.084 247.833 M302.583 249.235 C 302.996 249.315,303.671 249.315,304.083 249.235 C 304.496 249.156,304.158 249.091,303.333 249.091 C 302.508 249.091,302.171 249.156,302.583 249.235 M306.587 249.236 C 307.002 249.315,307.602 249.312,307.921 249.229 C 308.239 249.146,307.900 249.080,307.167 249.084 C 306.433 249.088,306.173 249.156,306.587 249.236 M333.744 251.333 C 333.744 251.975,333.813 252.237,333.896 251.917 C 333.980 251.596,333.980 251.071,333.896 250.750 C 333.813 250.429,333.744 250.692,333.744 251.333 M342.424 252.000 C 342.424 252.825,342.489 253.162,342.569 252.750 C 342.648 252.338,342.648 251.662,342.569 251.250 C 342.489 250.838,342.424 251.175,342.424 252.000 M333.417 254.833 C 333.421 255.567,333.489 255.827,333.569 255.413 C 333.649 254.998,333.646 254.398,333.562 254.079 C 333.479 253.761,333.414 254.100,333.417 254.833 M342.429 256.167 C 342.431 257.083,342.496 257.419,342.573 256.912 C 342.649 256.405,342.647 255.655,342.568 255.245 C 342.489 254.835,342.426 255.250,342.429 256.167 M337.437 257.167 C 337.438 258.267,337.501 258.676,337.575 258.077 C 337.649 257.478,337.648 256.578,337.572 256.077 C 337.495 255.576,337.435 256.067,337.437 257.167 M333.077 258.000 C 333.077 258.642,333.146 258.904,333.230 258.583 C 333.314 258.262,333.314 257.737,333.230 257.417 C 333.146 257.096,333.077 257.358,333.077 258.000 M332.744 261.333 C 332.744 261.975,332.813 262.237,332.896 261.917 C 332.980 261.596,332.980 261.071,332.896 260.750 C 332.813 260.429,332.744 260.692,332.744 261.333 M55.250 264.908 C 55.846 264.982,56.821 264.982,57.417 264.908 C 58.012 264.834,57.525 264.773,56.333 264.773 C 55.142 264.773,54.654 264.834,55.250 264.908 M333.411 269.667 C 333.411 270.308,333.479 270.571,333.563 270.250 C 333.647 269.929,333.647 269.404,333.563 269.083 C 333.479 268.762,333.411 269.025,333.411 269.667 M339.333 269.944 C 339.333 270.204,338.418 270.356,336.583 270.400 L 333.833 270.467 336.468 270.582 C 338.905 270.688,340.145 270.368,339.561 269.783 C 339.436 269.658,339.333 269.731,339.333 269.944 M190.755 276.573 C 191.261 276.649,192.011 276.647,192.421 276.568 C 192.831 276.489,192.417 276.426,191.500 276.429 C 190.583 276.431,190.248 276.496,190.755 276.573 M333.783 279.333 C 333.783 280.892,333.841 281.529,333.911 280.750 C 333.981 279.971,333.981 278.696,333.911 277.917 C 333.841 277.137,333.783 277.775,333.783 279.333 M333.795 287.667 C 333.795 289.958,333.848 290.896,333.913 289.750 C 333.979 288.604,333.979 286.729,333.913 285.583 C 333.848 284.438,333.795 285.375,333.795 287.667 M96.333 293.771 C 96.333 293.828,96.821 294.316,97.417 294.854 L 98.500 295.833 97.521 294.750 C 96.608 293.740,96.333 293.513,96.333 293.771 M334.744 298.000 C 334.744 298.642,334.813 298.904,334.896 298.583 C 334.980 298.262,334.980 297.737,334.896 297.417 C 334.813 297.096,334.744 297.358,334.744 298.000 M335.095 302.500 C 335.098 303.417,335.163 303.752,335.239 303.245 C 335.316 302.739,335.314 301.989,335.235 301.579 C 335.156 301.169,335.093 301.583,335.095 302.500 M50.917 305.574 C 51.512 305.648,52.487 305.648,53.083 305.574 C 53.679 305.501,53.192 305.440,52.000 305.440 C 50.808 305.440,50.321 305.501,50.917 305.574 M66.106 305.583 C 70.289 305.636,77.039 305.636,81.106 305.583 C 85.173 305.530,81.750 305.487,73.500 305.487 C 65.250 305.487,61.923 305.530,66.106 305.583 M335.440 308.667 C 335.440 309.858,335.501 310.346,335.574 309.750 C 335.648 309.154,335.648 308.179,335.574 307.583 C 335.501 306.987,335.440 307.475,335.440 308.667 M18.146 312.083 L 17.167 313.167 18.250 312.188 C 18.846 311.649,19.333 311.162,19.333 311.104 C 19.333 310.847,19.058 311.074,18.146 312.083 M330.583 315.235 C 330.996 315.315,331.671 315.315,332.083 315.235 C 332.496 315.156,332.158 315.091,331.333 315.091 C 330.508 315.091,330.171 315.156,330.583 315.235 M16.114 318.833 C 16.115 320.300,16.174 320.859,16.244 320.075 C 16.315 319.291,16.314 318.091,16.242 317.408 C 16.171 316.725,16.113 317.367,16.114 318.833 M355.643 321.707 C 355.198 321.832,325.761 321.948,290.228 321.967 L 225.622 322.000 225.845 322.703 C 226.146 323.653,228.000 330.144,228.000 330.249 C 228.000 330.296,257.390 330.333,293.310 330.333 L 358.620 330.333 358.727 329.583 C 358.785 329.171,358.787 327.236,358.730 325.284 L 358.626 321.735 357.539 321.608 C 356.942 321.538,356.088 321.583,355.643 321.707 M153.056 324.938 C 153.154 327.546,153.234 327.874,153.745 327.741 C 155.551 327.273,156.919 329.098,155.417 329.973 C 155.018 330.206,165.744 330.316,189.364 330.323 L 223.895 330.333 222.668 326.250 L 221.440 322.167 202.192 322.081 L 182.944 321.995 184.476 323.788 C 185.319 324.775,186.616 326.003,187.358 326.517 C 191.090 329.104,189.652 330.719,184.881 329.298 C 183.584 328.912,182.478 328.724,182.423 328.881 C 181.979 330.140,180.046 330.225,177.148 329.113 C 176.803 328.981,176.720 329.084,176.865 329.463 C 177.038 329.913,176.800 330.000,175.395 330.000 C 173.785 330.000,173.703 329.955,173.346 328.872 C 173.075 328.050,172.729 327.695,172.070 327.562 C 171.573 327.462,170.915 327.283,170.608 327.164 C 170.095 326.965,170.087 327.073,170.514 328.491 L 170.978 330.034 169.242 329.934 L 167.505 329.833 166.471 326.000 L 165.436 322.167 159.191 322.076 L 152.945 321.985 153.056 324.938 " stroke="none" fill="#8d94e2" fill-rule="evenodd"></path><path id="path5" d="M143.111 122.917 C 181.763 122.963,244.913 122.963,283.444 122.917 C 321.975 122.870,290.350 122.832,213.167 122.832 C 135.983 122.832,104.458 122.870,143.111 122.917 M359.831 222.500 C 359.831 268.883,359.869 287.809,359.917 264.557 C 359.964 241.304,359.964 203.354,359.917 180.223 C 359.869 157.092,359.831 176.117,359.831 222.500 M86.072 148.251 L 86.000 152.668 156.917 152.584 L 227.833 152.500 227.850 148.167 L 227.866 143.833 227.756 148.083 L 227.647 152.333 157.000 152.333 L 86.353 152.333 86.249 148.083 L 86.145 143.833 86.072 148.251 M69.763 197.005 C 68.260 197.611,67.000 199.908,67.000 202.045 C 67.000 203.115,66.823 204.653,66.606 205.464 C 65.925 208.009,67.465 212.667,68.987 212.667 C 69.561 212.667,69.607 212.552,69.325 211.812 C 69.146 211.341,69.000 210.460,69.000 209.852 C 69.000 209.245,68.775 208.562,68.500 208.333 C 67.904 207.839,67.837 205.963,68.395 205.405 C 68.700 205.100,68.924 205.130,69.374 205.537 C 70.110 206.202,70.555 205.935,70.835 204.660 C 71.497 201.643,78.667 202.598,78.667 205.704 C 78.667 207.416,80.665 206.524,81.328 204.515 C 81.858 202.910,81.466 202.368,78.660 200.830 C 77.344 200.108,75.889 199.064,75.426 198.509 C 73.958 196.749,71.814 196.180,69.763 197.005 M324.083 219.572 C 324.587 219.648,325.412 219.648,325.917 219.572 C 326.421 219.496,326.008 219.433,325.000 219.433 C 323.992 219.433,323.579 219.496,324.083 219.572 M161.755 228.906 C 162.261 228.982,163.011 228.980,163.421 228.901 C 163.831 228.822,163.417 228.760,162.500 228.762 C 161.583 228.765,161.248 228.829,161.755 228.906 M324.083 228.902 C 323.562 229.002,323.345 229.268,323.372 229.773 C 323.402 230.337,323.445 230.369,323.563 229.917 C 323.647 229.596,323.921 229.333,324.171 229.333 C 324.422 229.333,324.720 229.183,324.833 229.000 C 324.947 228.817,324.993 228.687,324.936 228.712 C 324.880 228.737,324.496 228.822,324.083 228.902 M154.751 234.500 C 154.754 235.233,154.823 235.494,154.902 235.079 C 154.982 234.665,154.979 234.065,154.896 233.746 C 154.812 233.427,154.747 233.767,154.751 234.500 M164.514 240.311 C 164.393 240.507,164.415 240.677,164.564 240.690 C 164.712 240.703,164.533 240.842,164.167 241.000 C 163.583 241.251,163.574 241.289,164.094 241.310 C 164.420 241.323,164.776 241.102,164.885 240.819 C 165.121 240.205,164.827 239.804,164.514 240.311 M237.667 249.500 L 237.667 251.667 277.333 251.667 C 315.786 251.667,317.000 251.648,317.000 251.047 C 317.000 250.705,316.905 249.730,316.788 248.880 L 316.576 247.333 315.231 247.333 C 314.491 247.333,312.899 247.730,311.693 248.214 C 307.853 249.757,301.809 249.660,297.023 247.978 C 295.265 247.360,294.005 247.333,266.428 247.333 L 237.667 247.333 237.667 249.500 M152.170 251.825 C 149.979 252.413,148.947 253.686,148.026 256.936 C 147.627 258.346,147.172 259.737,147.016 260.027 C 146.361 261.240,146.230 268.505,146.816 271.135 C 147.743 275.304,149.276 276.522,154.812 277.487 C 158.771 278.177,159.333 278.158,159.333 277.333 C 159.333 276.694,159.556 276.667,164.850 276.667 L 170.367 276.667 170.870 275.464 C 171.501 273.954,171.966 274.154,166.333 273.513 C 155.127 272.238,155.001 272.131,156.500 265.199 C 157.453 260.793,157.533 258.389,156.828 255.400 C 155.849 251.247,155.454 250.943,152.170 251.825 M319.041 264.250 C 314.433 278.504,312.820 287.984,314.001 293.874 C 315.100 299.350,317.603 309.592,318.046 310.419 C 318.402 311.085,318.226 311.344,316.017 313.384 C 314.676 314.623,313.697 315.779,313.820 315.978 C 313.979 316.235,301.125 316.314,268.886 316.252 C 244.050 316.205,223.800 316.279,223.885 316.417 C 223.970 316.554,252.193 316.631,286.603 316.586 C 321.013 316.542,341.442 316.458,332.000 316.399 L 314.833 316.291 318.979 315.139 C 323.977 313.749,323.641 314.067,322.567 311.746 C 321.950 310.412,321.575 308.825,321.326 306.500 C 321.130 304.667,320.599 300.264,320.147 296.716 L 319.324 290.264 320.970 284.716 C 322.472 279.653,323.542 275.799,324.178 273.167 L 324.420 272.167 324.714 273.167 C 325.518 275.897,329.062 296.727,329.818 303.167 C 330.292 307.200,330.714 310.783,330.756 311.130 C 330.813 311.590,330.293 312.056,328.833 312.857 C 324.816 315.061,325.071 315.469,330.289 315.178 C 335.842 314.868,336.113 314.797,335.852 313.716 C 335.735 313.231,335.570 311.558,335.485 310.000 C 335.027 301.554,334.562 295.629,334.230 294.000 C 334.025 292.992,333.830 289.842,333.797 287.000 C 333.686 277.327,333.343 268.172,333.011 266.000 C 332.829 264.808,332.677 263.646,332.673 263.417 C 332.668 263.098,331.119 263.000,326.056 263.000 L 319.445 263.000 319.041 264.250 M170.000 281.833 L 170.000 282.667 158.816 282.667 L 147.633 282.667 147.119 283.896 C 146.183 286.137,146.161 288.340,147.063 289.667 C 149.454 293.185,160.877 296.874,169.977 297.068 C 171.623 297.103,172.664 297.262,172.660 297.479 C 172.656 297.674,172.291 299.067,171.848 300.575 C 171.405 302.083,170.942 303.995,170.817 304.825 C 170.693 305.655,170.490 306.333,170.366 306.333 C 170.242 306.333,170.146 306.671,170.154 307.083 C 170.161 307.496,169.957 309.759,169.701 312.114 L 169.236 316.394 167.979 316.274 C 167.288 316.208,166.794 316.270,166.881 316.411 C 166.968 316.551,167.555 316.667,168.186 316.667 L 169.333 316.667 169.333 318.647 C 169.333 321.022,169.223 320.940,173.039 321.391 C 175.611 321.695,176.134 321.677,176.360 321.274 C 176.586 320.870,177.144 320.853,179.979 321.164 C 183.228 321.521,183.338 321.511,183.541 320.849 C 183.657 320.474,184.043 319.379,184.400 318.417 L 185.048 316.667 202.607 316.586 L 220.167 316.506 202.750 316.417 C 193.171 316.368,185.333 316.277,185.333 316.216 C 185.333 316.155,185.627 315.251,185.986 314.207 C 189.650 303.559,191.335 293.237,189.872 290.408 C 188.414 287.588,181.237 284.605,172.804 283.314 L 170.129 282.904 170.269 281.952 C 170.346 281.429,170.317 281.000,170.204 281.000 C 170.092 281.000,170.000 281.375,170.000 281.833 M50.309 287.249 C 73.595 287.318,79.982 287.426,80.091 287.752 C 80.171 287.987,80.215 287.950,80.194 287.667 C 80.162 287.226,76.613 287.166,50.412 287.164 L 20.667 287.161 50.309 287.249 M79.695 293.494 C 78.081 296.641,77.626 296.270,85.833 298.490 C 93.022 300.435,92.858 300.406,93.323 299.846 C 93.947 299.094,93.468 298.249,91.834 297.218 C 91.007 296.697,89.509 295.347,88.504 294.218 L 86.678 292.167 83.701 291.827 L 80.724 291.488 79.695 293.494 M27.773 305.583 C 31.956 305.636,38.706 305.636,42.773 305.583 C 46.839 305.530,43.417 305.487,35.167 305.487 C 26.917 305.487,23.589 305.530,27.773 305.583 M55.083 305.576 C 55.771 305.648,56.896 305.648,57.583 305.576 C 58.271 305.504,57.708 305.445,56.333 305.445 C 54.958 305.445,54.396 305.504,55.083 305.576 M88.750 305.563 C 89.071 305.647,89.596 305.647,89.917 305.563 C 90.237 305.479,89.975 305.411,89.333 305.411 C 88.692 305.411,88.429 305.479,88.750 305.563 M18.167 308.387 C 14.644 310.211,13.911 311.766,13.728 317.811 C 13.513 324.935,14.474 327.479,18.119 329.428 L 19.500 330.167 49.667 330.215 C 66.258 330.242,79.298 330.157,78.644 330.027 C 77.990 329.898,76.733 329.388,75.852 328.896 L 74.249 328.000 48.184 328.000 L 22.120 328.000 20.310 327.083 C 14.186 323.982,14.416 313.195,20.667 310.361 C 22.135 309.695,22.715 309.681,48.474 309.674 C 71.295 309.668,74.854 309.601,75.329 309.170 C 75.631 308.897,76.468 308.458,77.189 308.194 C 78.348 307.769,75.075 307.713,49.000 307.705 C 19.805 307.696,19.486 307.703,18.167 308.387 M152.999 316.417 C 153.000 316.554,155.512 316.638,158.583 316.604 C 164.240 316.540,163.576 316.413,156.749 316.254 C 154.686 316.206,152.999 316.279,152.999 316.417 M153.103 320.167 C 153.105 321.267,153.167 321.676,153.242 321.077 C 153.316 320.478,153.314 319.578,153.238 319.077 C 153.162 318.576,153.101 319.067,153.103 320.167 M170.833 327.179 C 171.383 327.431,172.058 327.632,172.333 327.626 C 172.608 327.621,172.308 327.414,171.667 327.167 C 170.145 326.581,169.546 326.589,170.833 327.179 M153.750 327.896 C 154.071 327.980,154.596 327.980,154.917 327.896 C 155.237 327.813,154.975 327.744,154.333 327.744 C 153.692 327.744,153.429 327.813,153.750 327.896 M181.781 329.169 C 181.569 329.626,181.508 330.000,181.645 330.000 C 181.781 330.000,182.064 329.625,182.273 329.167 C 182.482 328.708,182.543 328.335,182.410 328.336 C 182.276 328.337,181.993 328.712,181.781 329.169 " stroke="none" fill="#748cc4" fill-rule="evenodd"></path></g></svg>